<svg width="24" height="24" viewBox="0 0 24 24" fill="none" xmlns="http://www.w3.org/2000/svg">
<path d="M3.61971 8.49C5.58971 -0.169997 18.4197 -0.159997 20.3797 8.5C21.5297 13.58 18.3697 17.88 15.5997 20.54C14.6318 21.4735 13.3395 21.9952 11.9947 21.9952C10.65 21.9952 9.35763 21.4735 8.38971 20.54C5.62971 17.88 2.46971 13.57 3.61971 8.49Z" fill="#DF2818"/>
<path d="M11.9989 13.4304C12.4086 13.4304 12.8143 13.3497 13.1929 13.1929C13.5714 13.0361 13.9154 12.8063 14.2051 12.5166C14.4948 12.2269 14.7246 11.8829 14.8814 11.5044C15.0382 11.1259 15.1189 10.7202 15.1189 10.3104C15.1189 9.90071 15.0382 9.49499 14.8814 9.11646C14.7246 8.73792 14.4948 8.39397 14.2051 8.10426C13.9154 7.81454 13.5714 7.58472 13.1929 7.42793C12.8143 7.27113 12.4086 7.19043 11.9989 7.19043C11.1714 7.19043 10.3778 7.51914 9.79273 8.10426C9.20762 8.68937 8.87891 9.48295 8.87891 10.3104C8.87891 11.1379 9.20762 11.9315 9.79273 12.5166C10.3778 13.1017 11.1714 13.4304 11.9989 13.4304Z" fill="white"/>
</svg>
